<svg width="16" height="18" viewBox="0 0 16 18" fill="none" xmlns="http://www.w3.org/2000/svg">
<path fill-rule="evenodd" clip-rule="evenodd" d="M2 5.48438H14V13.4844C14 15.6935 12.2091 17.4844 10 17.4844H6C3.79086 17.4844 2 15.6935 2 13.4844V5.48438ZM4 7.48438V13.4844C4 14.5889 4.89543 15.4844 6 15.4844H10C11.1046 15.4844 12 14.5889 12 13.4844V7.48438H4Z" fill="white"/>
<path fill-rule="evenodd" clip-rule="evenodd" d="M0 3.51562C0 1.85877 1.34315 0.515625 3 0.515625H13C14.6569 0.515625 16 1.85877 16 3.51562V4.51562C16 6.17248 14.6569 7.51562 13 7.51562H3C1.34315 7.51562 0 6.17248 0 4.51562V3.51562ZM3 2.51562C2.44772 2.51562 2 2.96334 2 3.51562V4.51562C2 5.06791 2.44772 5.51562 3 5.51562H13C13.5523 5.51562 14 5.06791 14 4.51562V3.51562C14 2.96334 13.5523 2.51562 13 2.51562H3Z" fill="white"/>
</svg>
